<svg xmlns="http://www.w3.org/2000/svg" width="7.66" height="14" viewBox="0 0 7.66 14"><defs><style>.cls-1{fill:#fff;fill-rule:evenodd}</style></defs><path id="facebook" class="cls-1" d="M7.36 0H5.52a3.2 3.2 0 0 0-3.39 3.445v1.59H.28a.287.287 0 0 0-.29.284v2.3a.288.288 0 0 0 .29.284h1.85v5.808a.288.288 0 0 0 .29.285h2.4a.288.288 0 0 0 .29-.285V7.904h2.16a.288.288 0 0 0 .29-.285v-2.3a.3.3 0 0 0-.29-.286H5.11V3.687a.818.818 0 0 1 1.01-.976h1.24a.288.288 0 0 0 .29-.285V.288A.287.287 0 0 0 7.36 0z"/></svg>