<svg xmlns="http://www.w3.org/2000/svg" width="12.78" height="12.656" viewBox="0 0 12.78 12.656"><defs><style>.cls-1{fill:#fff;fill-rule:evenodd}</style></defs><path id="instagramm" class="cls-1" d="M9.83 3.403a.49.49 0 0 1-.49-.487v-.973a.49.49 0 0 1 .49-.487h.98a.49.49 0 0 1 .49.487v.973a.49.49 0 0 1-.49.487h-.98zM6.39 4.47a1.852 1.852 0 0 0-.97.273.954.954 0 0 1 .28-.045.942.942 0 1 1-.95.94.833.833 0 0 1 .04-.274 1.873 1.873 0 1 0 1.6-.895zm0-1.067a2.922 2.922 0 1 1-2.95 2.922 2.942 2.942 0 0 1 2.95-2.922m0-.973a3.9 3.9 0 1 0 3.93 3.895A3.915 3.915 0 0 0 6.39 2.43zm3.99-2.435H2.4A2.384 2.384 0 0 0 0 2.37v7.91a2.384 2.384 0 0 0 2.4 2.375h7.98a2.38 2.38 0 0 0 2.39-2.374V2.37a2.38 2.38 0 0 0-2.39-2.375zm1.41 4.382H8.58a2.888 2.888 0 0 1 .76 1.948 2.95 2.95 0 0 1-5.9 0 2.886 2.886 0 0 1 .76-1.948H.98V2.37A1.414 1.414 0 0 1 2.4.97h7.98a1.4 1.4 0 0 1 1.41 1.4v2.007z"/></svg>