<svg xmlns="http://www.w3.org/2000/svg" width="14" height="10" viewBox="0 0 14 10"><defs><style>.cls-1{fill:#252a35;fill-rule:evenodd}</style></defs><path id="Forma_1" data-name="Forma 1" class="cls-1" d="M14 8.333a1.68 1.68 0 0 1-.22.8l-4.43-4.71L13.73.78a1.6 1.6 0 0 1 .27.885V8.33zM7 5.28L13.08.21a1.792 1.792 0 0 0-.83-.21H1.75a1.792 1.792 0 0 0-.83.21zm1.7-.307L7.29 6.147a.46.46 0 0 1-.58 0L5.3 4.973.83 9.743a1.79 1.79 0 0 0 .92.257h10.5a1.79 1.79 0 0 0 .92-.256zM.27.78a1.6 1.6 0 0 0-.27.887v6.666a1.68 1.68 0 0 0 .22.8l4.42-4.71z"/></svg>