<svg xmlns="http://www.w3.org/2000/svg" width="14" height="14" viewBox="0 0 14 14"><defs><style>.cls-1{fill:#252a35;fill-rule:evenodd}</style></defs><path id="Forma_1" data-name="Forma 1" class="cls-1" d="M13.99 11.05a.694.694 0 0 1-.2.592L11.81 13.6a1.02 1.02 0 0 1-.34.252 1.546 1.546 0 0 1-.43.133l-.09.007a1.762 1.762 0 0 1-.19.008 6.808 6.808 0 0 1-.91-.1 6.994 6.994 0 0 1-1.54-.475 12.758 12.758 0 0 1-2.07-1.135 15.454 15.454 0 0 1-2.46-2.076 16.965 16.965 0 0 1-1.72-1.957A13.59 13.59 0 0 1 .97 6.53a9.26 9.26 0 0 1-.63-1.44 7.48 7.48 0 0 1-.28-1.112A3.63 3.63 0 0 1 0 3.244c.01-.178.02-.277.02-.3a1.41 1.41 0 0 1 .13-.422 1.1 1.1 0 0 1 .25-.35L2.37.203a.662.662 0 0 1 .48-.21.55.55 0 0 1 .34.112 1.015 1.015 0 0 1 .25.275l1.59 3.01a.713.713 0 0 1 .07.518.916.916 0 0 1-.25.475l-.73.726a.34.34 0 0 0-.05.1.57.57 0 0 0-.02.11 2.656 2.656 0 0 0 .27.712 6.27 6.27 0 0 0 .54.868 9.586 9.586 0 0 0 1.06 1.18A9.968 9.968 0 0 0 7.1 9.14a7.38 7.38 0 0 0 .87.555 2.315 2.315 0 0 0 .53.215l.19.037a.283.283 0 0 0 .09-.022.23.23 0 0 0 .1-.052l.84-.86a.925.925 0 0 1 .63-.237.765.765 0 0 1 .4.09h.01l2.86 1.69a.74.74 0 0 1 .37.493z"/></svg>