<svg xmlns="http://www.w3.org/2000/svg" width="55.5" height="49.5" viewBox="0 0 55.5 49.5"><path stroke="#3F434B" fill="none" d="M.5.5h54v48H.5V.5z"/><path fill-rule="evenodd" fill="#3F434B" d="M37.1 32.9v1.2h-1.2v2.4H19.1v-2.4h-1.2v-1.2h-2.4V19.3h3.6v-6.8h16.8v6.8h3.6v13.6h-2.4zm-17.2 1.2v1.6h15.2v-8.4H19.9v6.8zm-3.6-2h1.6v-1.6a.4.4 0 0 1 .8 0v2.8h.4v-6h-2.8v4.8zm18.8-18.8H19.9v6h15.2v-6zm3.6 6.8H16.3v6.4h22.4v-6.4zm0 7.2h-2.8v6h.4V30.5a.4.4 0 0 1 .8 0v1.6h1.6v-4.8zm-3.2-6c1.103 0 2 .897 2 2s-.897 2-2 2-2-.897-2-2 .897-2 2-2zm0 3.2a1.2 1.2 0 0 0 0-2.4 1.2 1.2 0 0 0 0 2.4zm-3.2 8h-9.6a.4.4 0 0 1 0-.8h9.6a.4.4 0 0 1 0 .8zm0-2h-9.6a.4.4 0 0 1 0-.8h9.6a.4.4 0 0 1 0 .8z"/></svg>
