<svg xmlns="http://www.w3.org/2000/svg" width="16.5" height="9.343" viewBox="0 0 16.5 9.343"><defs><style>.cls-1{fill:#fff;fill-rule:evenodd}</style></defs><path id="vk" class="cls-1" d="M14.64 3.906c.24-.3.43-.542.56-.724q1.485-1.96 1.29-2.5l-.05-.085a.475.475 0 0 0-.27-.14 1.37 1.37 0 0 0-.55-.022l-2.47.017a.68.68 0 0 0-.17 0 .56.56 0 0 0-.12.026.384.384 0 0 1-.04.02l-.03.026a.47.47 0 0 0-.1.09.62.62 0 0 0-.08.15 14.416 14.416 0 0 1-.92 1.916c-.22.352-.41.658-.59.916a4.58 4.58 0 0 1-.45.57 2.87 2.87 0 0 1-.32.295.316.316 0 0 1-.23.094c-.05-.01-.1-.022-.14-.034a.6.6 0 0 1-.2-.208.97.97 0 0 1-.09-.333 2.366 2.366 0 0 1-.03-.346 2.732 2.732 0 0 1 0-.41c.01-.175.01-.3.01-.357 0-.215 0-.45.01-.7s.02-.454.02-.6.01-.3.01-.47a1.945 1.945 0 0 0-.03-.386A1.323 1.323 0 0 0 9.57.44a.448.448 0 0 0-.18-.2.908.908 0 0 0-.28-.116 5.848 5.848 0 0 0-1.16-.11 5.725 5.725 0 0 0-2.06.2 1.224 1.224 0 0 0-.33.256c-.1.125-.11.193-.04.2a1.036 1.036 0 0 1 .73.367l.05.1a1.634 1.634 0 0 1 .12.392 3.76 3.76 0 0 1 .08.622 6.268 6.268 0 0 1 0 1.064c-.03.295-.05.525-.08.69a1.6 1.6 0 0 1-.22.588.236.236 0 0 1-.04.042.645.645 0 0 1-.23.043.583.583 0 0 1-.3-.12 2.03 2.03 0 0 1-.35-.328 3.464 3.464 0 0 1-.42-.584 7.79 7.79 0 0 1-.48-.886l-.14-.247c-.09-.16-.2-.39-.35-.694s-.28-.6-.4-.883a.53.53 0 0 0-.2-.273L3.24.538a.656.656 0 0 0-.13-.072 1.065 1.065 0 0 0-.2-.055L.55.43A.608.608 0 0 0 .06.59L.03.64A.24.24 0 0 0 0 .778a.786.786 0 0 0 .05.23c.35.8.72 1.573 1.12 2.317s.76 1.344 1.06 1.8.6.883.91 1.287.51.662.61.776.18.2.24.255l.22.2a4.874 4.874 0 0 0 .6.49 9.727 9.727 0 0 0 .89.563 4.757 4.757 0 0 0 1.13.452 3.906 3.906 0 0 0 1.25.14h.99a.687.687 0 0 0 .46-.187l.03-.042a.41.41 0 0 0 .07-.158.86.86 0 0 0 .03-.234 2.73 2.73 0 0 1 .05-.66 1.793 1.793 0 0 1 .15-.444 1.216 1.216 0 0 1 .18-.25.72.72 0 0 1 .15-.124.46.46 0 0 1 .56.1 2.893 2.893 0 0 1 .52.494c.16.2.36.416.59.66a4.09 4.09 0 0 0 .6.545l.17.1a2.377 2.377 0 0 0 .45.187.965.965 0 0 0 .48.043l2.2-.034a1.008 1.008 0 0 0 .51-.106.4.4 0 0 0 .21-.234.56.56 0 0 0 .01-.29 1.038 1.038 0 0 0-.06-.225.73.73 0 0 0-.06-.107 8.267 8.267 0 0 0-1.64-1.883l-.02-.017-.01-.008v.002h-.01a9.99 9.99 0 0 1-.7-.7.64.64 0 0 1-.12-.69 6.794 6.794 0 0 1 .77-1.116z"/></svg>